<svg width="28" height="28" viewBox="0 0 28 28" fill="none" xmlns="http://www.w3.org/2000/svg">
<path d="M17.4657 22.0024C17.2225 23.6987 15.7635 25.0025 14 25.0025C12.2365 25.0025 10.7775 23.6987 10.5343 22.0024H17.4657ZM14 3C18.6097 3 22.3625 6.66899 22.4975 11.246V11.5012H22.5012L22.501 15.613L23.915 19.2573C23.9532 19.3557 23.979 19.4583 23.9919 19.5627L24.0017 19.7203C24.0017 20.383 23.498 20.9281 22.8526 20.9937L22.7217 21.0003H5.27479C5.11608 21.0003 4.95876 20.9708 4.81084 20.9133C4.19317 20.673 3.8677 20.006 4.04055 19.3807L4.08183 19.2563L5.498 15.612L5.49876 11.5012C5.49876 6.80614 9.30489 3 14 3Z" fill="#4D4959"/>
</svg>
